<?xml version="1.0" encoding="utf-8"?>
<!-- Svg Vector Icons : http://www.onlinewebfonts.com/icon -->
<!DOCTYPE svg PUBLIC "-//W3C//DTD SVG 1.1//EN" "http://www.w3.org/Graphics/SVG/1.1/DTD/svg11.dtd">
<svg version="1.1" xmlns="http://www.w3.org/2000/svg" xmlns:xlink="http://www.w3.org/1999/xlink" x="0px" y="0px" viewBox="0 0 256 256" enable-background="new 0 0 256 256" xml:space="preserve">
<metadata> Svg Vector Icons : http://www.onlinewebfonts.com/icon </metadata>
<g> <path fill="#82c7a0" d="M232.6,101.9V89.8h-45.1V59.6h-12.1v30.2H127V59.6h-12.1v30.2H54.4v12.1h60.5v36.3H72.5v12.1h42.3v30.2H127 v-30.2h48.4v30.2h12.1v-30.2h42.3v-12.1h-42.3v-36.3H232.6z M175.4,138.2H127v-36.3h48.4V138.2z"/> <path fill="#3fb479" d="M245.8,74.4c0.8-5.2-0.7-10.5-4.2-14.5c-3.4-4-8.5-6.3-13.8-6.3H52.9L44.7,21l0,0v0H16c-3.3,0-6,2.7-6,6 c0,3.3,2.7,6,6,6h19.3l19.8,78.4l18.8,75.1h9c-6.2,5-10.3,12.6-10.3,21.2c0,15,12.2,27.2,27.2,27.2c15,0,27.2-12.2,27.2-27.2 c0-8.6-4.1-16.2-10.3-21.2h69c-6.2,5-10.3,12.6-10.3,21.2c0,15,12.2,27.2,27.2,27.2s27.2-12.2,27.2-27.2c0-8.6-4.1-16.2-10.3-21.2 h9.5L245.8,74.4z M99.8,222.9c-8.3,0-15.1-6.8-15.1-15.1c0-8.3,6.8-15.1,15.1-15.1s15.1,6.8,15.1,15.1 C114.9,216.1,108.1,222.9,99.8,222.9z M202.6,222.9c-8.3,0-15.1-6.8-15.1-15.1c0-8.3,6.8-15.1,15.1-15.1c8.3,0,15.1,6.8,15.1,15.1 C217.7,216.1,210.9,222.9,202.6,222.9z M56.1,65.6h171.8c1.8,0,3.4,0.7,4.6,2.1c1.2,1.4,1.7,3.1,1.4,4.8l-15.3,101.9H83.3l-9-36.2 l0.1,0l-6.8-27.1L56.1,65.6z"/></g>
</svg>